<svg xmlns="http://www.w3.org/2000/svg" viewBox="0 0 420 240"><g fill="none" stroke="#0876da" stroke-width="5" stroke-linecap="round" stroke-dasharray="8 8"><path d="M83 69c43 40 91 51 127 52M337 69c-43 40-91 51-127 52"/></g><g fill="#fff" stroke="#0876da" stroke-width="4"><path d="M34 50c12-29 63-31 78 0 25-2 37 39 4 43H28C-4 89 7 47 34 50z"/><path d="M304 50c12-29 63-31 78 0 25-2 37 39 4 43h-88c-32-4-21-46 6-43z"/></g><text x="72" y="79" text-anchor="middle" font-size="20" font-family="Arial" font-weight="900">WAN 1</text><text x="342" y="79" text-anchor="middle" font-size="20" font-family="Arial" font-weight="900">WAN 2</text><rect x="145" y="104" width="130" height="43" rx="6" fill="#178ce0" stroke="#063b7d" stroke-width="5"/><text x="210" y="132" text-anchor="middle" fill="#fff" font-family="Arial" font-weight="900">9 SYNC</text><path d="M210 147v35M91 147v35M329 147v35M150 147v28H43v25M270 147v28h107v25" stroke="#0876da" stroke-width="5" fill="none"/><g fill="#eaf6ff" stroke="#073b78" stroke-width="4"><rect x="15" y="199" width="52" height="30"/><rect x="353" y="199" width="52" height="30"/><rect x="190" y="185" width="40" height="40"/><rect x="303" y="179" width="52" height="12"/><rect x="303" y="196" width="52" height="12"/><rect x="303" y="213" width="52" height="12"/></g><text x="210" y="215" text-anchor="middle" font-size="32" fill="#0876da">⌁</text><path d="m210 23 29 12v25c0 18-12 30-29 38-17-8-29-20-29-38V35z" fill="#fff" stroke="#0876da" stroke-width="5"/><path d="m210 39 14 8-6 31h-16l-6-31z" fill="#f05a25"/></svg>
